<svg width="36" height="36" viewBox="0 0 36 36" fill="none" xmlns="http://www.w3.org/2000/svg">
<path d="M26.3333 18H21.3333L19.6666 20.5H16.3333L14.6666 18H9.66663" stroke="#71717A" stroke-width="1.5" stroke-linecap="round" stroke-linejoin="round"/>
<path d="M12.5416 12.2583L9.66663 18V23C9.66663 23.442 9.84222 23.8659 10.1548 24.1785C10.4673 24.4911 10.8913 24.6666 11.3333 24.6666H24.6666C25.1087 24.6666 25.5326 24.4911 25.8451 24.1785C26.1577 23.8659 26.3333 23.442 26.3333 23V18L23.4583 12.2583C23.3203 11.9806 23.1076 11.747 22.8441 11.5835C22.5806 11.4201 22.2767 11.3335 21.9666 11.3333H14.0333C13.7232 11.3335 13.4193 11.4201 13.1558 11.5835C12.8923 11.747 12.6796 11.9806 12.5416 12.2583V12.2583Z" stroke="#71717A" stroke-width="1.5" stroke-linecap="round" stroke-linejoin="round"/>
<rect x="27" y="6" width="8" height="8" rx="4" fill="#8B5CF6"/>
</svg>
